<svg width="0" height="0" class="hidden">
  <symbol xmlns="http://www.w3.org/2000/svg"  viewBox="0 0 24 24" id="play-filled">
    <path d="M0 0h24v24H0z" fill="none"></path>
    <path d="M12 2C6.48 2 2 6.48 2 12s4.48 10 10 10 10-4.48 10-10S17.52 2 12 2zm-2 14.5v-9l6 4.5-6 4.5z"></path>
  </symbol>
  <symbol xmlns="http://www.w3.org/2000/svg"  viewBox="0 0 24 24" id="remove">
    <path d="M0 0h24v24H0z" fill="none"></path>
    <path d="M7 11v2h10v-2H7zm5-9C6.48 2 2 6.48 2 12s4.48 10 10 10 10-4.48 10-10S17.52 2 12 2zm0 18c-4.41 0-8-3.59-8-8s3.59-8 8-8 8 3.59 8 8-3.59 8-8 8z"></path>
  </symbol>
  <symbol xmlns="http://www.w3.org/2000/svg"  viewBox="0 0 24 24" id="pause">
    <path d="M0 0h24v24H0z" fill="none"></path>
    <path d="M9 16h2V8H9v8zm3-14C6.48 2 2 6.48 2 12s4.48 10 10 10 10-4.48 10-10S17.52 2 12 2zm0 18c-4.41 0-8-3.59-8-8s3.59-8 8-8 8 3.59 8 8-3.59 8-8 8zm1-4h2V8h-2v8z"></path>
  </symbol>
  <symbol xmlns="http://www.w3.org/2000/svg"  viewBox="0 0 24 24" id="play">
    <path d="M0 0h24v24H0z" fill="none"></path>
    <path d="M10 16.5l6-4.5-6-4.5v9zM12 2C6.48 2 2 6.48 2 12s4.48 10 10 10 10-4.48 10-10S17.52 2 12 2zm0 18c-4.41 0-8-3.59-8-8s3.59-8 8-8 8 3.59 8 8-3.59 8-8 8z"></path>
  </symbol>
</svg>